<?xml version="1.0" encoding="UTF-8" standalone="no"?>
<!-- Generator: Adobe Illustrator 15.0.0, SVG Export Plug-In . SVG Version: 6.00 Build 0)  -->

<svg
   xmlns:dc="http://purl.org/dc/elements/1.1/"
   xmlns:cc="http://creativecommons.org/ns#"
   xmlns:rdf="http://www.w3.org/1999/02/22-rdf-syntax-ns#"
   xmlns:svg="http://www.w3.org/2000/svg"
   xmlns="http://www.w3.org/2000/svg"
   xmlns:sodipodi="http://sodipodi.sourceforge.net/DTD/sodipodi-0.dtd"
   xmlns:inkscape="http://www.inkscape.org/namespaces/inkscape"
   version="1.1"
   id="Calque_1"
   x="0px"
   y="0px"
   width="464px"
   height="147px"
   viewBox="0 0 464 147"
   enable-background="new 0 0 464 147"
   xml:space="preserve"
   inkscape:version="0.48.5 r10040"
   sodipodi:docname="2016-05-06---logo-Redige---sur-fond-blanc.svg"
   inkscape:export-filename="C:\data\client\redige-saas\front\app\assets\logo-white-200x63.png"
   inkscape:export-xdpi="38.790001"
   inkscape:export-ydpi="38.790001"><metadata
   id="metadata31"><rdf:RDF><cc:Work
       rdf:about=""><dc:format>image/svg+xml</dc:format><dc:type
         rdf:resource="http://purl.org/dc/dcmitype/StillImage" /><dc:title></dc:title></cc:Work></rdf:RDF></metadata><defs
   id="defs29" /><sodipodi:namedview
   pagecolor="#ffffff"
   bordercolor="#666666"
   borderopacity="1"
   objecttolerance="10"
   gridtolerance="10"
   guidetolerance="10"
   inkscape:pageopacity="0"
   inkscape:pageshadow="2"
   inkscape:window-width="640"
   inkscape:window-height="480"
   id="namedview27"
   showgrid="false"
   inkscape:zoom="0.75646552"
   inkscape:cx="232"
   inkscape:cy="73.5"
   inkscape:window-x="0"
   inkscape:window-y="0"
   inkscape:window-maximized="0"
   inkscape:current-layer="Calque_1" />
<g
   id="g3">
	<path
   fill="#1860ED"
   d="M225.5,33.448c-3.883,0-7.041,3.159-7.041,7.041c0,3.883,3.158,7.042,7.041,7.042   c3.883,0,7.041-3.159,7.041-7.042C232.541,36.607,229.382,33.448,225.5,33.448"
   id="path5" />
	<polygon
   fill="#1860ED"
   points="135.645,33.667 123.063,33.667 113.128,47.348 125.23,47.348  "
   id="polygon7" />
	<path
   fill="#253552"
   d="M122.678,55.752c-15.288,0-25.86,9.922-25.86,26.528c0,15.692,12.151,26.526,28.553,26.526   c12.15,0,19.947-7.088,19.947-7.088l-6.076-6.884c0,0-5.467,4.657-13.77,4.657c-9.619,0-17.212-5.975-18.022-15.086l38.643,0.003   C146.093,66.132,139.082,55.752,122.678,55.752 M108.057,76.813c1.519-7.898,7.129-12.455,14.621-12.455   c8.506,0,13.527,5.468,13.527,12.455H108.057z"
   id="path9" />
	<path
   fill="#253552"
   d="M325.178,55.752c-15.287,0-25.859,9.922-25.859,26.528c0,15.692,12.15,26.526,28.553,26.526   c12.15,0,19.947-7.088,19.947-7.088l-6.076-6.884c0,0-5.467,4.657-13.77,4.657c-9.619,0-17.213-5.975-18.021-15.086l38.643,0.003   C348.594,66.132,341.582,55.752,325.178,55.752 M310.557,76.813c1.52-7.898,7.131-12.455,14.621-12.455   c8.506,0,13.527,5.468,13.527,12.455H310.557z"
   id="path11" />
	<path
   fill="#253552"
   d="M204.003,91.898v-58.22h-10.732v28.35h-0.203c-3.644-3.543-8.1-5.669-13.365-5.973   c-1.923-0.202-3.847-0.101-5.771,0.203c-11.947,1.721-21.161,12.251-21.161,26.021s9.214,24.3,21.161,26.021   c1.924,0.304,3.848,0.507,5.872,0.405c6.582-0.305,12.252-2.937,16.201-7.594h0.203c1.416,4.657,6.58,6.481,10.934,6.481   c2.026,0,2.683-0.406,2.683-0.406v-9.313c0,0-0.961,0.1-1.468,0.1C206.13,97.973,204.003,96.353,204.003,91.898 M193.271,92   c-3.038,4.455-7.999,7.188-13.568,7.188c-8.809,0-16.098-7.188-16.098-16.908s7.289-16.908,16.098-16.908   c5.569,0,10.429,2.936,13.568,7.491V92z"
   id="path13" />
	<rect
   x="220.304"
   y="56.967"
   fill="#253552"
   width="10.632"
   height="50.626"
   id="rect15" />
	<path
   fill="#253552"
   d="M281.129,63.025h-0.203c-3.535-4.17-8.453-6.448-14.168-7.099c-0.234-0.031-0.471-0.052-0.707-0.075   c-0.049-0.005-0.1-0.01-0.15-0.014c-0.303-0.027-0.605-0.047-0.912-0.061c-0.088-0.005-0.174-0.013-0.264-0.018l0.006,0.01   c-0.182-0.005-0.367-0.018-0.551-0.018c-13.363,0-24.299,11.973-24.299,26.453c0,14.478,10.936,26.048,24.299,26.048   c5.873,0,11.586-2.607,14.58-6.71h0.203v5.179c0,9.313-8.707,12.514-17.82,12.514c-4.758,0-8.504-1.215-11.643-2.836l-4.76,8.202   c4.658,2.531,10.631,3.835,17.719,3.835c14.277,0,26.4-6.164,26.4-21.756V92.207l0.064,0.097V72.239   c0-4.456,2.127-6.074,4.354-6.074c0.506,0,1.469,0.101,1.469,0.101v-9.314c0,0-0.658-0.404-2.684-0.404   C287.709,56.547,282.545,58.368,281.129,63.025 M278.963,92c-3.014,4.455-7.934,7.188-13.457,7.188   c-8.738,0-15.969-7.188-15.969-16.908s7.23-16.908,15.969-16.908c5.523,0,10.344,2.936,13.457,7.491V92z"
   id="path17" />
	<path
   fill="#253552"
   d="M88.553,96.36c-1.454,0.008-3.517-0.273-4.936-1.982c-1.683-2.025-6.134-9.898-11.25-17.42   c8.031-3.152,12.445-11.623,12.445-20.42c0-13.87-10.125-22.822-27.135-22.822H34.337v73.876h10.936V79.565h13.924h1.3   c3.541,5.255,12.23,19.645,15.229,23.014c4.177,4.694,8.492,5.09,11.194,5.09c0.296,0,0.573-0.005,0.828-0.009   c0.202-0.003,0.402-0.007,0.598-0.007h2.38V96.36H88.553 M57.678,69.944H45.273v-26.61h12.405c10.024,0,15.897,5.914,15.897,13.204   C73.575,63.627,68.006,69.944,57.678,69.944"
   id="path19" />
	<path
   fill="#1860ED"
   d="M403.311,47.422v52.672c0.008,0.745-0.051,1.256-0.197,1.256c-0.27,0-0.604,0.031-1.396,0.031   c-1.434,0-2.309-0.926-2.309-2.226c0-25.362-19.779-37.917-23.318-42.988c-9.705,13.541-8.482,32.497,3.688,44.663   c13.533,13.538,35.48,13.538,49.016,0c12.203-12.198,13.4-31.231,3.605-44.783c-3.789,5.234-23.238,17.85-23.238,43.211   c0,1.017-0.551,2.112-2.08,2.112c-0.869,0-1.375-0.021-1.639-0.021c-0.189,0-0.182-1.266-0.182-1.266V47.422"
   id="path21" />
	<rect
   x="403.096"
   y="47.422"
   fill="#1860ED"
   width="2.381"
   height="55.339"
   id="rect23" />
	<path
   fill="#1860ED"
   d="M404.285,33.448c-3.883,0-7.041,3.159-7.041,7.041c0,3.883,3.158,7.042,7.041,7.042   s7.041-3.159,7.041-7.042C411.326,36.607,408.168,33.448,404.285,33.448"
   id="path25" />
</g>
</svg>